<svg xmlns="http://www.w3.org/2000/svg" width="640" height="640" class="svg replaced-svg" viewBox="0 -28 480 480"><path fill="none" d="M60 404V80c-.008-22.094 17.906-40.008 40-40h368.7c-4.532-17.668-20.462-30.016-38.7-30H50C27.906 9.992 9.992 27.906 10 50v324c-.008 22.094 17.906 40.008 40 40h11.3a36.48 36.48 0 0 1-1.3-10zm0 0"/><path fill="#999" d="M430 0H50C22.39.012.012 22.39 0 50v324c.012 27.61 22.39 49.988 50 50h380c27.61-.012 49.988-22.39 50-50V50c-.012-27.61-22.39-49.988-50-50zM50 20h380c16.547.047 29.953 13.453 30 30v41.7H20V50c.047-16.547 13.453-29.953 30-30zm380 384H50c-16.547-.047-29.953-13.453-30-30V111.7h440V374c-.047 16.547-13.453 29.953-30 30zm0 0"/><path fill="#999" d="M405.398 281.102h-126.5c-5.52 0-10 4.476-10 10 0 5.52 4.48 10 10 10h126.5c5.524 0 10-4.48 10-10 0-5.524-4.476-10-10-10zM405.398 339.3h-126.5c-5.52 0-10 4.477-10 10 0 5.524 4.48 10 10 10h126.5c5.524 0 10-4.476 10-10 0-5.523-4.476-10-10-10zM405.398 164.7h-126.5c-5.52 0-10 4.476-10 10 0 5.523 4.48 10 10 10h126.5c5.524 0 10-4.477 10-10 0-5.524-4.476-10-10-10zM405.398 222.898h-126.5c-5.52 0-10 4.48-10 10 0 5.524 4.48 10 10 10h126.5c5.524 0 10-4.476 10-10 0-5.52-4.476-10-10-10zM143.398 258c28.528.027 51.676-23.074 51.704-51.602.027-28.523-23.075-51.671-51.602-51.699-28.527-.027-51.672 23.074-51.7 51.602.036 28.496 23.102 51.605 51.598 51.699zm0-83.3a31.647 31.647 0 0 1 29.282 19.515 31.646 31.646 0 0 1-6.852 34.515 31.647 31.647 0 0 1-54.027-22.43c.047-17.433 14.168-31.55 31.597-31.6zM143.398 277.102a77.748 77.748 0 0 0-56.199 23.5C72.2 315.898 64 336.699 64 359.3c.016 5.515 4.484 9.984 10 10h138.898a10.027 10.027 0 0 0 10-10c0-22.602-8.199-43.403-23.199-58.7a77.96 77.96 0 0 0-56.3-23.5zM84.7 349.3a61.171 61.171 0 0 1 16.801-34.7 58.903 58.903 0 0 1 41.898-17.5c15.747 0 30.836 6.301 41.903 17.5a61.466 61.466 0 0 1 16.8 34.7zm0 0"/></svg>