<svg xmlns="http://www.w3.org/2000/svg" width="800" height="800" class="svg icon replaced-svg" viewBox="-4 0 32 32"><g id="Page-1" fill="none" fill-rule="evenodd" stroke="none" stroke-width="1"><g id="Icon-Set" fill="#767676" transform="translate(-104 -411)"><path id="location" d="M116 426a3 3 0 1 1 0-6 3 3 0 0 1 0 6Zm0-8a5 5 0 1 0 0 10 5 5 0 0 0 0-10Zm0 22c-1.663.009-10-12.819-10-17 0-5.522 4.477-10 10-10s10 4.478 10 10c0 4.125-8.363 17.009-10 17Zm0-29c-6.627 0-12 5.373-12 12 0 5.018 10.005 20.011 12 20 1.964.011 12-15.05 12-20 0-6.627-5.373-12-12-12Z"/></g></g></svg>