<svg xmlns="http://www.w3.org/2000/svg" width="419pt" height="419pt" class="svg replaced-svg" viewBox="0 -9 419.554 419"><path fill="none" d="m156.023 353.625 13.864-80.836L70 175.422l138.043-20.059 36.672-74.3-34.938-70.786-61.734 125.086L10 155.422l99.887 97.367-23.578 137.488zm0 0"/><path fill="#999" d="M333.246 400.277a9.999 9.999 0 0 1-4.652-1.148L209.777 336.66 90.961 399.13a10.002 10.002 0 0 1-14.512-10.543l22.696-132.3-96.125-93.7a9.997 9.997 0 0 1 5.543-17.055l132.84-19.3L200.808 5.85a10.006 10.006 0 0 1 8.968-5.574 9.996 9.996 0 0 1 8.965 5.575l59.41 120.375 132.84 19.296a10.016 10.016 0 0 1 8.074 6.809 10 10 0 0 1-2.53 10.25l-96.126 93.7 22.692 132.3a9.99 9.99 0 0 1-2.211 8.137 9.993 9.993 0 0 1-7.645 3.554zM209.777 315.36c1.621 0 3.22.395 4.653 1.149l105.535 55.484-20.156-117.512c-.555-3.242.52-6.55 2.879-8.851l85.378-83.223-117.988-17.144a10 10 0 0 1-7.531-5.473l-52.77-106.918-52.77 106.918a9.993 9.993 0 0 1-7.527 5.473L31.488 162.406l85.38 83.223a9.991 9.991 0 0 1 2.874 8.851L99.59 371.996l105.535-55.48a10.006 10.006 0 0 1 4.652-1.157zm0 0"/></svg>